<svg xmlns="http://www.w3.org/2000/svg" width="16.061" height="17.118" viewBox="0 0 16.061 17.118"><defs><style>.a{fill:#556f96;}</style></defs><g transform="translate(-36.546)"><path class="a" d="M52.356,5.082a2.575,2.575,0,0,0-.6-.847L47.839.758a2.993,2.993,0,0,0-.954-.535A3.206,3.206,0,0,0,45.781,0H37.75A1.239,1.239,0,0,0,36.9.312a.977.977,0,0,0-.351.758V16.048a.977.977,0,0,0,.351.758,1.24,1.24,0,0,0,.853.312H51.4a1.24,1.24,0,0,0,.853-.312.977.977,0,0,0,.351-.758V6.063A2.332,2.332,0,0,0,52.356,5.082ZM46.183,1.516a1.432,1.432,0,0,1,.514.245l3.927,3.488a1.188,1.188,0,0,1,.276.457H46.183ZM51,15.692H38.152V1.427h6.424V6.063a.977.977,0,0,0,.351.758,1.24,1.24,0,0,0,.853.312H51Z" transform="translate(0 0)"/></g></svg>