<svg xmlns="http://www.w3.org/2000/svg" width="130" height="75.445" viewBox="0 0 130 75.445"><defs><style>.a{fill:#fff;}.b{fill:#556f96;}</style></defs><g transform="translate(-257.539 -85.744)"><path class="a" d="M387.778,105.365l-74.9,15.4L260.4,104.014l72.426-15.223Z" transform="translate(-0.995 -1.062)"/><g transform="translate(257.54 101.666)"><path class="a" d="M309.725,169.26,259.04,152.093v-40.4l50.685,17.167Z" transform="translate(-258.062 -110.714)"/><path class="b" d="M309.2,169.715a.975.975,0,0,1-.313-.051L258.2,152.5a.977.977,0,0,1-.664-.926v-40.4a.978.978,0,0,1,1.291-.926l50.684,17.167a.977.977,0,0,1,.665.926v40.4a.978.978,0,0,1-.977.978ZM259.5,150.87l48.73,16.5V129.037l-48.73-16.5Z" transform="translate(-257.54 -110.192)"/></g><g transform="translate(257.539 85.744)"><path class="b" d="M311.828,121.692a.969.969,0,0,1-.316-.053L258.2,103.4a.978.978,0,0,1,.111-1.881l73.351-15.758a.983.983,0,0,1,.49.02l54.693,16.63a.978.978,0,0,1-.063,1.887l-74.734,17.363A.969.969,0,0,1,311.828,121.692Zm-49.661-19,49.712,17,70.906-16.474-50.959-15.5Z" transform="translate(-257.539 -85.744)"/></g><g transform="translate(330.892 86.721)"><rect class="b" width="1.955" height="37.375"/></g><g transform="translate(309.236 134.266)"><path class="a" d="M343.4,167.972a2.243,2.243,0,0,0,.446-1.354v-3.482a1.458,1.458,0,0,0-.431-1.161,1.257,1.257,0,0,0-1.155-.214l-3.787.884a.1.1,0,0,0-.091.111V169.5c0,.06.03.084.091.071l3.8-.882A1.877,1.877,0,0,0,343.4,167.972Z" transform="translate(-337.404 -160.736)"/><path class="a" d="M337.921,170.026a1.034,1.034,0,0,1-.654-.227,1.05,1.05,0,0,1-.386-.823v-6.742a1.086,1.086,0,0,1,.858-1.065l3.776-.882a2.2,2.2,0,0,1,2.019.428,2.392,2.392,0,0,1,.767,1.9V166.1a3.226,3.226,0,0,1-.646,1.947h0a2.84,2.84,0,0,1-1.694,1.076l-3.79.879A1.174,1.174,0,0,1,337.921,170.026Zm.915-7.106v4.918l2.7-.625a.907.907,0,0,0,.569-.356,1.282,1.282,0,0,0,.245-.779v-3.464a.637.637,0,0,0-.094-.423.471.471,0,0,0-.3,0Zm4.042,4.531h0Zm-4.688-4.38-.018,0Z" transform="translate(-336.881 -160.215)"/></g><path class="b" d="M414.287,111.481a.978.978,0,0,0-.818-.2l-77.377,16.509a.977.977,0,0,0-.774.956v40.361a.977.977,0,0,0,.977.978,1,1,0,0,0,.231-.027l77.377-18.78a.977.977,0,0,0,.747-.95v-38.09A.978.978,0,0,0,414.287,111.481Z" transform="translate(-27.11 -8.899)"/><g transform="translate(321.094 130.894)"><path class="a" d="M360.636,165.366l-1.857-3.728a.085.085,0,0,0-.106-.053l-1.375.3a.1.1,0,0,0-.09.111v4.053a.293.293,0,0,1-.257.314l-1.616.351c-.171.037-.256-.03-.256-.2V156.4a.293.293,0,0,1,.256-.314l4.244-.942a3.186,3.186,0,0,1,1.7.026,2.038,2.038,0,0,1,1.133.882,2.936,2.936,0,0,1,.4,1.585,3.616,3.616,0,0,1-.514,1.894,3.72,3.72,0,0,1-1.419,1.361.125.125,0,0,0-.061.067.053.053,0,0,0,.015.065l1.995,3.763a.188.188,0,0,1,.044.127.184.184,0,0,1-.06.135.335.335,0,0,1-.167.081l-1.707.371A.26.26,0,0,1,360.636,165.366Zm-3.427-7.755v2.55c0,.061.029.085.09.071l1.963-.431a1.859,1.859,0,0,0,1.035-.6,1.581,1.581,0,0,0,.4-1.069,1.059,1.059,0,0,0-.4-.907,1.22,1.22,0,0,0-1.035-.159l-1.963.434A.1.1,0,0,0,357.209,157.61Z" transform="translate(-355.079 -155.04)"/></g><g transform="translate(330.755 128.726)"><path class="a" d="M376.9,161.92l-.423-1.328a.066.066,0,0,0-.091-.057l-3.7.806a.111.111,0,0,0-.091.1l-.423,1.51a.375.375,0,0,1-.287.275l-1.752.381a.185.185,0,0,1-.2-.041.2.2,0,0,1-.016-.2l3.217-10.87a.381.381,0,0,1,.287-.278l2.22-.493a.223.223,0,0,1,.287.151l3.217,9.484a.2.2,0,0,1,.015.089.229.229,0,0,1-.06.158.31.31,0,0,1-.167.09l-1.751.38A.224.224,0,0,1,376.9,161.92Zm-3.7-2.353,2.673-.585c.061-.013.085-.054.076-.123l-1.359-4.356c-.01-.038-.028-.055-.053-.05s-.048.031-.068.076l-1.344,4.947C373.118,159.551,373.144,159.581,373.2,159.568Z" transform="translate(-369.907 -151.711)"/></g><g transform="translate(340.247 124.81)"><path class="a" d="M387.149,158.319l-2.658-9.6a.146.146,0,0,1-.015-.073.262.262,0,0,1,.242-.268l1.721-.382a.2.2,0,0,1,.272.169l1.42,5.793c.01.038.031.055.061.048s.05-.031.06-.075l1.359-6.409a.334.334,0,0,1,.272-.29l1.707-.379c.16-.036.256.02.286.166l1.48,5.793c.01.038.027.055.053.05s.042-.029.053-.073l1.359-6.423a.334.334,0,0,1,.272-.291l1.646-.365c.091-.02.153-.006.189.042a.243.243,0,0,1,.022.2l-2.431,10.762a.343.343,0,0,1-.287.292l-1.662.361c-.161.035-.256-.021-.287-.167l-1.51-6.184c-.01-.039-.03-.055-.061-.048s-.05.031-.061.075l-1.4,6.817a.333.333,0,0,1-.272.289l-1.54.334C387.274,158.521,387.179,158.465,387.149,158.319Z" transform="translate(-384.476 -145.701)"/></g><g transform="translate(354.491 122.289)"><path class="a" d="M413.418,143.709l-4.863,1.075a.1.1,0,0,0-.091.113v2.354c0,.061.03.085.091.072l3.157-.695c.171-.038.256.031.256.205v1.341a.3.3,0,0,1-.256.319l-3.157.691a.1.1,0,0,0-.091.112v2.462c0,.062.03.086.091.073l4.863-1.06c.17-.038.256.031.256.206v1.342a.3.3,0,0,1-.256.318l-6.827,1.483c-.171.037-.256-.031-.256-.206V143.677a.3.3,0,0,1,.256-.318l6.827-1.515c.17-.038.256.031.256.205v1.342A.3.3,0,0,1,413.418,143.709Z" transform="translate(-406.335 -141.833)"/></g><g transform="translate(363.958 120.149)"><path class="a" d="M426.427,149.056l-1.858-3.8a.085.085,0,0,0-.106-.054l-1.374.3a.1.1,0,0,0-.091.113v4.124a.3.3,0,0,1-.257.318l-1.615.351c-.171.037-.257-.031-.257-.207V139.909a.3.3,0,0,1,.257-.319l4.244-.942a3.142,3.142,0,0,1,1.7.033,2.062,2.062,0,0,1,1.133.9,3.041,3.041,0,0,1,.4,1.615,3.727,3.727,0,0,1-1.934,3.3.13.13,0,0,0-.061.068.054.054,0,0,0,.015.066l1.994,3.837a.2.2,0,0,1-.015.267.331.331,0,0,1-.166.082l-1.707.371A.258.258,0,0,1,426.427,149.056ZM423,141.151v2.595c0,.062.03.086.091.073l1.963-.432a1.842,1.842,0,0,0,1.035-.606,1.621,1.621,0,0,0,.4-1.086,1.091,1.091,0,0,0-.4-.925,1.2,1.2,0,0,0-1.035-.166l-1.963.435A.1.1,0,0,0,423,141.151Z" transform="translate(-420.869 -138.548)"/></g><g transform="translate(262.231 121.272)"><path class="b" d="M266.525,149.917a5.091,5.091,0,0,1-1.325-1.677,4.466,4.466,0,0,1-.461-2.005l.014-3.374a2.884,2.884,0,0,1,.475-1.709,2.058,2.058,0,0,1,1.336-.826,4.118,4.118,0,0,1,2.006.186,5.981,5.981,0,0,1,1.98,1.037,4.942,4.942,0,0,1,1.326,1.607,4.154,4.154,0,0,1,.468,1.936c0,.089-.079.118-.235.088l-1.565-.391-.059-.018c-.137-.043-.2-.089-.2-.138v-.089a2.229,2.229,0,0,0-.47-1.4,2.455,2.455,0,0,0-1.249-.862,1.435,1.435,0,0,0-1.267.072,1.223,1.223,0,0,0-.48,1.095l-.014,3.527a2.2,2.2,0,0,0,.47,1.381,2.506,2.506,0,0,0,1.264.874,1.414,1.414,0,0,0,1.253-.07,1.207,1.207,0,0,0,.48-1.081.107.107,0,0,1,.067-.1.227.227,0,0,1,.182.021l1.565.572c.165.073.249.124.248.153v.074a2.652,2.652,0,0,1-.483,1.642,2.058,2.058,0,0,1-1.336.778,4.17,4.17,0,0,1-1.983-.212A5.863,5.863,0,0,1,266.525,149.917Z" transform="translate(-264.739 -140.271)"/></g><g transform="translate(271.315 123.344)"><path class="b" d="M278.679,153.45l.04-9.808q0-.25.249-.173l1.565.489a.317.317,0,0,1,.248.328l-.033,8.2a.113.113,0,0,0,.087.117l4.7,1.5a.321.321,0,0,1,.248.332l-.005,1.29q0,.251-.25.171l-6.6-2.121A.32.32,0,0,1,278.679,153.45Z" transform="translate(-278.679 -143.451)"/></g><g transform="translate(279.37 126.65)"><path class="b" d="M292.867,158.333a5.37,5.37,0,0,1-1.348-1.763,4.824,4.824,0,0,1-.475-2.119l.012-3.174a3.081,3.081,0,0,1,.491-1.791,2.178,2.178,0,0,1,1.358-.89,3.9,3.9,0,0,1,2.013.161,5.7,5.7,0,0,1,2.024,1.1,5.265,5.265,0,0,1,1.348,1.745,4.791,4.791,0,0,1,.475,2.107l-.012,3.2a3.209,3.209,0,0,1-.491,1.831,2.136,2.136,0,0,1-1.358.9,3.925,3.925,0,0,1-2.027-.182A5.669,5.669,0,0,1,292.867,158.333Zm3.32-.783a1.421,1.421,0,0,0,.5-1.227l.013-3.279a2.583,2.583,0,0,0-.484-1.548,2.476,2.476,0,0,0-1.307-.94,1.369,1.369,0,0,0-1.3.121,1.46,1.46,0,0,0-.5,1.235l-.012,3.269a2.538,2.538,0,0,0,.484,1.538,2.487,2.487,0,0,0,1.292.935A1.4,1.4,0,0,0,296.187,157.55Z" transform="translate(-291.044 -148.526)"/></g><g transform="translate(288.8 128.736)"><path class="b" d="M307.31,162.385a5.188,5.188,0,0,1-1.326-1.692,4.527,4.527,0,0,1-.468-2.029l.027-6.743c0-.169.083-.228.25-.176l1.565.489a.319.319,0,0,1,.248.332l-.027,6.77a2.334,2.334,0,0,0,.471,1.433,2.444,2.444,0,0,0,1.249.888,1.37,1.37,0,0,0,1.252-.087,1.294,1.294,0,0,0,.48-1.133l.027-6.791q0-.255.25-.177l1.565.489a.32.32,0,0,1,.248.334l-.026,6.788a2.939,2.939,0,0,1-.483,1.736,2.1,2.1,0,0,1-1.336.843,3.927,3.927,0,0,1-1.984-.187A5.75,5.75,0,0,1,307.31,162.385Z" transform="translate(-305.516 -151.727)"/></g><path class="b" d="M330.356,168l0-8.411-8.873-2.782c-.165-.052-.249.008-.25.179l-.136,9.819a.343.343,0,0,0,.046.159l-.007.058.065.023a.346.346,0,0,0,.144.1l.529.142,8.488,2.834V168Z" transform="translate(-22.144 -24.756)"/><path class="a" d="M344.369,159.721a2.274,2.274,0,0,0-1.322-.835,4.346,4.346,0,0,0-1.986.039l-4.837,1.122-.853.186a.294.294,0,0,0-.257.314V170.6c0,.172.085.239.257.2l.853-.185,4.837-1.105a5.547,5.547,0,0,0,1.986-.833,4.252,4.252,0,0,0,1.322-1.417,3.569,3.569,0,0,0,.468-1.784V161.3A2.557,2.557,0,0,0,344.369,159.721Z" transform="translate(-27.029 -25.451)"/></g></svg>