<svg xmlns="http://www.w3.org/2000/svg" width="20" height="16" viewBox="0 0 20 16"><defs><style>.a{fill:#556f96;}</style></defs><g transform="translate(0 -54.821)"><g transform="translate(0 54.821)"><path class="a" d="M19.51,55.311a1.6,1.6,0,0,0-1.177-.49H1.667a1.605,1.605,0,0,0-1.177.49A1.6,1.6,0,0,0,0,56.488V69.154a1.6,1.6,0,0,0,.49,1.177,1.605,1.605,0,0,0,1.177.49H18.333A1.672,1.672,0,0,0,20,69.154V56.488A1.6,1.6,0,0,0,19.51,55.311Zm-.844,13.844a.337.337,0,0,1-.333.333H1.667a.337.337,0,0,1-.333-.333V56.487a.338.338,0,0,1,.333-.333H18.333a.337.337,0,0,1,.333.333V69.154Z" transform="translate(0 -54.821)"/><path class="a" d="M75.1,131.917a1.995,1.995,0,1,0-1.419-.584A1.932,1.932,0,0,0,75.1,131.917Z" transform="translate(-70.424 -125.245)"/><path class="a" d="M78.089,178.93l-1.666-1.669L73.092,180.6v2H87.749v-4.675l-4.33-4.341Z" transform="translate(-70.421 -169.264)"/></g></g></svg>